# xmcd
#
# Track frame offsets: 
#        150
#        11872
#        24350
#        35767
#        47147
#        60527
#        69750
#        81420
#        93047
#        107732
#        116115
#        129610
#        141280
#        153460
#        164482
#        177787
#        190142
#        199890
#        211367
#        224452
#        235310
#        246537
#        256215
#        271400
#        283157
#        295675
#        308040
#        325202
#        338952
#        351657
#
# Disc length: 4841 seconds
#
# Revision: 2
# Processed by: cddbd v1.5.2PL0 Copyright (c) Steve Scherf et al.
# Submitted via: ExactAudioCopyFreeDBPlugin 1.0
#
DISCID=d612e71e
DTITLE=Various Artist - Sweet Soul Music:  411 Scorching Classics, 19
DTITLE=61-1975 [Bear Family]
DYEAR=2008
DGENRE=Soul
TTITLE0=Bobby Bland - That's The Way Love Is
TTITLE1=Mary Wells - Two Lovers
TTITLE2=Ruby and The Romantics - Our Day Will Come
TTITLE3=Otis Redding - These Arms of Mine
TTITLE4=The Miracles - You've Really Got a Hold on Me
TTITLE5=Jan Bradley - Mama Didn't Lie
TTITLE6=Chuck Jackson - Tell Him I'm Not Home
TTITLE7=Cookie and His Cupcakes - Got You on My Mind
TTITLE8=Theola Kilgore - The Love of My Man
TTITLE9=The Chiffons - He's So Fine
TTITLE10=Jackie Wilson - Baby Workout
TTITLE11=Jimmy Holiday - How Can I Forget
TTITLE12=Justine "Baby" Washington - That's How Heartaches Are Made
TTITLE13=Mongo Santamaria - Watermelon Man
TTITLE14=The Drifters - On Broadway
TTITLE15=Barbara Lewis - Hello Stranger
TTITLE16=Marvin Gaye - Pride of Joy
TTITLE17=Solomon Burke - If You Need Me
TTITLE18=Etta James - Pushover
TTITLE19=The Five Du-Tones - Shake a Tail Feather
TTITLE20=Doris Troy - Just One Look
TTITLE21=The Essex - Easier Said Than Done
TTITLE22=Garnet Mimms and The Enchanters - Cry Baby
TTITLE23=Inez Foxx - Mockingbird
TTITLE24=Major Lance - The Monkey Time
TTITLE25=Martha and The Vandellas - Heat Wave
TTITLE26=Little Johnny Taylor - Part Time Love
TTITLE27=Bob and Earl - Harlem Shuffle
TTITLE28=The Impressions - It's All Right
TTITLE29=Rufus Thomas - Walking the Dog
EXTD=YEAR: 1963
EXTT0=
EXTT1=
EXTT2=
EXTT3=
EXTT4=
EXTT5=
EXTT6=
EXTT7=
EXTT8=
EXTT9=
EXTT10=
EXTT11=
EXTT12=
EXTT13=
EXTT14=
EXTT15=
EXTT16=
EXTT17=
EXTT18=
EXTT19=
EXTT20=
EXTT21=
EXTT22=
EXTT23=
EXTT24=
EXTT25=
EXTT26=
EXTT27=
EXTT28=
EXTT29=
PLAYORDER=
